<?xml version="1.0" encoding="UTF-8"?>
<!DOCTYPE svg PUBLIC "-//W3C//DTD SVG 1.0//EN" "http://www.w3.org/TR/2001/REC-SVG-20010904/DTD/svg10.dtd">
<svg xmlns="http://www.w3.org/2000/svg" xml:space="preserve" width="626px" height="300px" version="1.0" style="shape-rendering:geometricPrecision; text-rendering:geometricPrecision; image-rendering:optimizeQuality; fill-rule:evenodd; clip-rule:evenodd"
viewBox="0 0 331.69 158.93"
 xmlns:xlink="http://www.w3.org/1999/xlink">
 <g id="carbon-tracker-logo">
  <g id="logo">
   <path fill="#2B2A29" d="M69.73 24.27c-9.18,0.43 -17.89,3.86 -24.67,9.47 -0.58,0.48 -0.79,0.57 -1.32,1.15 -0.48,0.52 -0.71,0.8 -1.22,1.24 -1.21,1.06 -3.21,3.74 -4.18,5.44 -1.27,2.22 -2.21,4.26 -3.02,6.83 -2.93,9.3 -2.39,24.38 -3.82,35.32 -0.74,5.6 -2.5,11.79 -2.05,17.55 0.82,10.51 10.69,19.18 22.28,14.55 4.19,-1.66 7.92,-5.49 9.19,-10.29 2.89,-10.94 -8.67,-29.36 14.08,-42.29 4.3,-2.44 9.08,-4.7 11.66,-7.8 2.95,-3.54 5.44,-7.94 5.06,-14.37 -0.36,-5.98 -3.72,-10.2 -6.86,-12.62 -3.81,-2.93 -9.01,-4.46 -15.13,-4.18z"/>
   <path fill="#15AE55" d="M35.45 139.34c10.89,2.58 17.82,3.77 29.69,2.15 9.43,-1.28 17.81,-3.86 25.65,-7.43 8.78,-4 13.18,-7.34 20.02,-12.87 9.41,-7.61 5.95,-14.47 -0.11,-11.08 -1.82,1.02 -3.39,2.23 -5.02,3.27 -15.18,9.75 -28.15,16.55 -47.4,18.59 -21.75,2.3 -39.33,-4.46 -46.31,-18.99 -10.22,-21.24 -8.25,-45.19 4.26,-65.35 0.7,-1.13 3.05,-3.95 2.99,-5.35 -0.08,-2.1 -2.8,-4.53 -4.64,-2.55 -4.2,4.52 -9.16,15.56 -11.19,21.92 -6.85,21.42 -3.25,47.46 10.23,65.34 3.54,4.7 4.1,5.09 7.64,8.91 4.9,5.3 11.53,10.01 19.07,14.04 26.04,13.93 59.03,11.55 83.07,-6.31 0.83,-0.63 1.42,-1.03 2.28,-1.75l4.43 -3.85c0.48,-0.43 0.5,-0.52 0.98,-1.04 0.38,-0.41 0.75,-0.65 1.17,-1.06l5.71 -6.6c4,-5.22 8.29,-12.17 10.5,-18.36 3.21,-8.99 5.19,-17.37 5.05,-27.98 -0.18,-13.15 -4.45,-27.85 -11.41,-38.19 -1.2,-1.79 -2.13,-3.16 -3.39,-4.87l-5.57 -6.75c-1.66,-1.53 -2.89,-3.44 -4.87,-2.81 -0.87,0.28 -1.98,1.28 -2.32,1.97 -0.88,1.83 1.15,4.32 1.95,5.63 5.03,8.27 9.6,19.7 11.51,29.88 2.81,14.99 0.61,27.72 -6.82,40.46 -13.84,23.77 -43.82,44.63 -74.06,41.02 -4.88,-0.58 -8.87,-1.78 -13,-3.49 -3.08,-1.29 -8.56,-4.58 -10.09,-6.5z"/>
   <path fill="#00A0E3" d="M114.16 28.28c-3.38,1.23 -1.43,4.33 -0.44,6.88 3.42,8.74 5.21,16.36 3.5,26.25 -0.98,5.72 -2.96,10.69 -5.29,15.27 -4.89,9.61 -12.67,18.56 -20.99,25.32 -0.91,0.74 -1.95,1.48 -2.92,2.23 -1.99,1.53 -3.89,2.89 -6.01,4.27 -4.18,2.74 -8.29,4.98 -13.11,7.48 -1.73,0.9 -6.28,2.37 -4.96,4.74 1.07,1.92 6.26,-0.1 8.12,-0.67 13.39,-4.1 29.1,-13.95 38.44,-23.33 3.95,-3.97 6.35,-6.23 9.76,-10.82 11.6,-15.63 11.86,-27.93 3.09,-46.5 -1.07,-2.27 -2.41,-4.63 -3.7,-6.58 -0.72,-1.09 -1.35,-2.13 -2.04,-3.1 -0.63,-0.89 -1.67,-2.09 -3.45,-1.44z"/>
   <path fill="#B3794A" d="M132.77 83.1c-1.23,0.34 -1.73,1.44 -2.25,2.54 -1.28,2.69 -4.02,6.6 -5.63,8.92 -1.32,1.91 -2.92,3.67 -3.94,5.68 -1.32,2.59 -0.58,5.46 2.25,6 4.64,0.87 8.07,-6.15 9.56,-9.63 1.04,-2.43 3.23,-8.76 2.71,-11.58 -0.23,-1.25 -1.2,-2.34 -2.7,-1.93z"/>
   <path fill="#00A0E3" d="M52.44 122.92c-3.27,0.49 -5.98,0.77 -9.37,0.81 -1.2,0.01 -3.83,-0.37 -3.95,1.12 -0.25,2.94 11.52,1.67 13.06,1.46 1.42,-0.2 3.1,-0.47 3.35,-1.8 0.36,-1.86 -1.75,-1.79 -3.09,-1.59z"/>
   <path fill="#F6A7C9" d="M98.93 30.68c0.2,-1.33 -0.32,-2.51 0.76,-5.1 1.47,-3.53 3.35,-4.53 6.16,-6.22 2.55,-1.53 2.42,-2.43 3.16,-2.93 0.42,0.14 0.26,0.07 0.58,0.36 -0.01,2.14 -3.74,4.57 -5.17,5.73 -1.64,1.32 -4.04,5.04 -3.3,7.75 0.62,-0.07 4.96,-1.5 5.5,-1.77 3.98,-2.01 5.96,-5.85 6.62,-10.44 0.2,-1.39 0.43,-5.43 0.04,-6.41l-3.83 1.08c-3.69,1.13 -7.85,1.77 -10.76,4.2 -2.11,1.77 -3.74,4.38 -4.19,7.99 -0.29,2.39 0.76,6.51 2.23,7.49 0.42,-0.87 1.44,-1.59 2.2,-1.73z"/>
   <path fill="#EE1C25" d="M86.92 21.55c-0.08,-1.15 -0.73,-2.03 -0.3,-4.39 0.57,-3.22 1.95,-4.39 3.99,-6.32 1.84,-1.74 1.57,-2.47 2.1,-3.02 0.37,0.04 0.22,0.01 0.54,0.19 0.39,1.79 -2.28,4.5 -3.26,5.73 -1.12,1.4 -2.44,4.94 -1.32,7.06 0.5,-0.17 3.86,-2.16 4.26,-2.48 2.94,-2.41 3.89,-5.97 3.6,-9.92 -0.09,-1.19 -0.64,-4.6 -1.14,-5.35l-3 1.61c-2.87,1.61 -6.21,2.91 -8.19,5.47 -1.44,1.86 -2.32,4.34 -2.03,7.43 0.2,2.04 1.82,5.28 3.23,5.83 0.19,-0.8 0.91,-1.59 1.52,-1.84z"/>
   <path fill="#F7941D" d="M74.75 17.24c-0.31,-0.95 -1.03,-1.56 -1.16,-3.62 -0.18,-2.81 0.74,-4.08 2.06,-6.11 1.18,-1.84 0.81,-2.4 1.14,-2.96 0.32,-0.05 0.18,-0.04 0.49,0.04 0.69,1.42 -0.99,4.24 -1.56,5.47 -0.65,1.41 -1.03,4.64 0.34,6.19 0.39,-0.25 2.79,-2.6 3.06,-2.95 1.98,-2.62 2.04,-5.8 0.98,-9.05 -0.31,-0.98 -1.47,-3.73 -2.05,-4.25l-2.18 1.96c-2.07,1.94 -4.61,3.71 -5.74,6.26 -0.83,1.86 -1.06,4.12 -0.18,6.65 0.58,1.67 2.61,4.05 3.9,4.22 -0.01,-0.71 0.44,-1.51 0.9,-1.85z"/>
   <path fill="#FFDD16" d="M61.73 18.37c-0.46,-0.86 -1.27,-1.32 -1.78,-3.28 -0.69,-2.69 -0.04,-4.08 0.85,-6.28 0.81,-2 0.34,-2.47 0.55,-3.07 0.3,-0.1 0.18,-0.07 0.49,-0.05 0.93,1.24 -0.17,4.27 -0.49,5.57 -0.37,1.48 -0.14,4.67 1.47,5.91 0.33,-0.31 2.21,-3.02 2.41,-3.42 1.42,-2.89 0.89,-5.97 -0.73,-8.92 -0.49,-0.88 -2.11,-3.32 -2.77,-3.72l-1.74 2.3c-1.64,2.26 -3.76,4.44 -4.39,7.11 -0.45,1.94 -0.25,4.17 1.07,6.44 0.87,1.51 3.26,3.44 4.54,3.36 -0.13,-0.68 0.14,-1.54 0.52,-1.95z"/>
   <path fill="#B3794A" d="M50 21.95c-0.69,-0.7 -1.59,-0.92 -2.6,-2.68 -1.39,-2.39 -1.13,-3.91 -0.87,-6.27 0.24,-2.14 -0.33,-2.47 -0.29,-3.11 0.26,-0.18 0.15,-0.11 0.46,-0.18 1.22,0.95 0.98,4.17 1.02,5.5 0.04,1.52 1.12,4.54 3,5.3 0.23,-0.39 1.32,-3.51 1.4,-3.94 0.6,-3.17 -0.74,-6 -3.09,-8.39 -0.71,-0.73 -2.93,-2.64 -3.66,-2.85l-1.06 2.68c-0.98,2.62 -2.44,5.29 -2.32,8.03 0.08,1.99 0.87,4.08 2.75,5.92 1.24,1.22 4.07,2.43 5.28,2.02 -0.32,-0.63 -0.28,-1.53 -0.02,-2.03z"/>
   <path fill="#15AE55" d="M38.75 29c-0.8,-0.56 -1.73,-0.6 -3.07,-2.13 -1.82,-2.08 -1.86,-3.62 -2.06,-5.99 -0.18,-2.14 -0.8,-2.35 -0.89,-2.99 0.23,-0.22 0.13,-0.14 0.42,-0.26 1.38,0.69 1.77,3.89 2.06,5.19 0.33,1.49 1.98,4.24 3.98,4.62 0.15,-0.42 0.61,-3.69 0.61,-4.13 -0.03,-3.23 -1.89,-5.74 -4.66,-7.64 -0.84,-0.57 -3.38,-2.02 -4.15,-2.08l-0.52 2.84c-0.45,2.75 -1.37,5.65 -0.72,8.32 0.47,1.94 1.65,3.84 3.85,5.28 1.45,0.95 4.46,1.59 5.57,0.95 -0.43,-0.55 -0.57,-1.44 -0.42,-1.98z"/>
   <path fill="#00A0E3" d="M30.07 38.33c-0.91,-0.35 -1.82,-0.18 -3.48,-1.35 -2.25,-1.6 -2.65,-3.09 -3.39,-5.34 -0.67,-2.05 -1.33,-2.1 -1.55,-2.7 0.16,-0.27 0.09,-0.17 0.34,-0.35 1.51,0.35 2.62,3.37 3.21,4.57 0.67,1.36 2.9,3.65 4.93,3.56 0.05,-0.44 -0.26,-3.73 -0.36,-4.16 -0.78,-3.12 -3.17,-5.14 -6.3,-6.34 -0.95,-0.36 -3.75,-1.18 -4.51,-1.06l0.15 2.88c0.2,2.78 -0.02,5.81 1.23,8.25 0.9,1.77 2.48,3.35 4.96,4.24 1.63,0.59 4.7,0.51 5.63,-0.37 -0.55,-0.43 -0.89,-1.27 -0.86,-1.83z"/>
  </g>
  <path fill="#2B2A29" fill-rule="nonzero" d="M188.41 70.41c1.17,0 1.75,0.57 1.75,1.7 0,1.42 -1.69,3.16 -5.08,5.22 -3.39,2.07 -6.66,3.1 -9.83,3.1 -2.8,0 -5.37,-0.91 -7.72,-2.74 -2.35,-1.83 -3.52,-4.49 -3.52,-7.99 0,-3.57 1.22,-7.53 3.68,-11.87 2.46,-4.35 5.5,-7.89 9.14,-10.63 3.63,-2.73 7.18,-4.1 10.63,-4.1 2.06,0 3.7,0.62 4.93,1.84 1.24,1.23 1.85,2.67 1.85,4.32 0,1.78 -0.14,3.05 -0.42,3.83 -0.27,0.77 -0.86,1.44 -1.77,1.99 -0.91,0.55 -1.65,0.84 -2.21,0.84 -0.59,0 -1.09,-0.22 -1.52,-0.63 -0.43,-0.41 -0.65,-0.98 -0.65,-1.68 0,-0.49 0.13,-1.21 0.4,-2.14 0.24,-0.94 0.36,-1.73 0.36,-2.36 0,-1.05 -0.36,-1.59 -1.08,-1.59 -2.22,0 -4.7,1.19 -7.45,3.55 -2.74,2.37 -5.1,5.31 -7.05,8.82 -1.97,3.51 -2.95,6.61 -2.95,9.3 0,1.78 0.52,3.28 1.55,4.51 1.03,1.24 2.54,1.85 4.52,1.85 1.16,0 2.63,-0.32 4.41,-0.94 1.77,-0.64 3.42,-1.49 4.92,-2.57 1.52,-1.08 2.55,-1.63 3.11,-1.63zm23.66 0.28c-4.04,5.32 -7.94,7.99 -11.7,7.99 -1.39,0 -2.58,-0.54 -3.57,-1.64 -1,-1.09 -1.51,-2.47 -1.51,-4.17 0,-4.07 1.82,-8.4 5.45,-13 3.62,-4.61 7.27,-6.9 10.96,-6.9 1.87,0 3.11,0.94 3.69,2.83 1.76,0 2.65,0.68 2.65,2.03 0,0.64 -0.17,1.81 -0.51,3.5 -0.61,3.16 -0.92,5.69 -0.92,7.58 0,1.97 0.13,3.35 0.4,4.15 0.28,0.8 0.46,1.32 0.59,1.57 0.13,0.24 0.5,0.5 1.11,0.78 0.61,0.29 0.92,0.7 0.92,1.22 0,0.78 -0.39,1.44 -1.19,1.96 -0.79,0.52 -1.62,0.78 -2.48,0.78 -2.88,0 -4.18,-2.89 -3.89,-8.68zm-1.38 -12.79c-1.55,0 -3.57,1.71 -6.05,5.14 -2.48,3.44 -3.72,6.35 -3.72,8.75 0,1.26 0.26,1.89 0.78,1.89 1.81,0 4.05,-1.61 6.7,-4.82 2.65,-3.23 3.97,-6.04 3.97,-8.45 0,-0.77 -0.17,-1.38 -0.52,-1.83 -0.35,-0.46 -0.73,-0.68 -1.16,-0.68zm18.97 9.08l0.38 -0.74c1.87,-3.74 3.87,-6.77 6,-9.1 2.15,-2.32 4.24,-3.49 6.29,-3.49 1.56,0 2.85,0.43 3.84,1.3 0.99,0.86 1.48,1.88 1.48,3.06 0,0.74 -0.17,1.38 -0.51,1.9 -0.34,0.53 -0.8,0.8 -1.41,0.8 -0.95,0 -1.81,-0.4 -2.6,-1.17 -0.55,-0.52 -0.99,-0.77 -1.31,-0.77 -1.15,0 -3.08,1.79 -5.78,5.37 -2.71,3.58 -4.34,7.6 -4.89,12.08 -0.17,1.29 -0.54,2.18 -1.13,2.7 -0.58,0.51 -1.37,0.77 -2.37,0.77 -1.06,0 -1.81,-0.6 -2.26,-1.8 -0.44,-1.21 -0.66,-3.18 -0.66,-5.91 0,-1.13 0.02,-2.64 0.08,-4.55 0.07,-1.79 0.25,-3.99 0.54,-6.58 0.07,-0.68 0.12,-1.21 0.16,-1.6 0.14,-1.5 0.29,-2.53 0.47,-3.1 0.18,-0.56 0.59,-1.08 1.23,-1.57 0.65,-0.5 1.36,-0.74 2.14,-0.74 0.84,0 1.46,0.24 1.9,0.72 0.42,0.47 0.64,1 0.64,1.56 0,0.73 -0.34,2.22 -1.04,4.49 -0.24,0.79 -0.45,1.73 -0.62,2.82l-0.57 3.55zm21.86 -10.95c1.5,-8.84 2.57,-14.07 3.22,-15.69 0.65,-1.63 1.79,-2.44 3.42,-2.44 1.26,0 1.89,1.11 1.89,3.33 0,1.53 -0.63,4.68 -1.89,9.47 -0.66,2.37 -1.46,5.95 -2.4,10.75 1.91,-2.54 3.98,-4.59 6.24,-6.15 2.25,-1.58 4.26,-2.36 6.03,-2.36 1.43,0 2.64,0.62 3.6,1.86 0.96,1.24 1.44,2.69 1.44,4.37 0,4.72 -1.82,9.17 -5.45,13.34 -3.63,4.16 -7.49,6.24 -11.58,6.24 -1.23,0 -2.38,-0.34 -3.43,-1 -1.06,-0.67 -1.66,-1.52 -1.8,-2.57 -0.06,-0.57 -0.17,-0.94 -0.35,-1.13 -0.16,-0.18 -0.34,-0.39 -0.53,-0.6 -0.44,-0.46 -0.66,-1.11 -0.66,-1.94 0,-0.95 0.23,-2.93 0.71,-5.94l1.54 -9.54zm2.73 16.36c0.64,1.07 1.36,1.61 2.16,1.61 1.45,0 3.04,-0.66 4.8,-1.99 1.77,-1.33 3.29,-3.2 4.59,-5.61 1.3,-2.41 1.95,-4.42 1.95,-6.02 0,-1.51 -0.24,-2.28 -0.72,-2.28 -2.44,0 -5.18,1.79 -8.22,5.36 -3.05,3.57 -4.56,6.55 -4.56,8.93zm44.12 -5.67c-1.03,3.6 -2.99,6.63 -5.87,9.09 -2.88,2.47 -5.75,3.7 -8.63,3.7 -2.27,0 -4.15,-0.83 -5.62,-2.5 -1.48,-1.67 -2.21,-3.71 -2.21,-6.14 0,-3.96 1.35,-7.87 4.05,-11.7 2.71,-3.85 5.99,-5.77 9.84,-5.77 2.63,0 4.76,0.98 6.39,2.92 1.63,1.94 2.44,4.25 2.44,6.94 0,1.18 -0.13,2.32 -0.39,3.44l0 0.02zm-11.99 -7.28c-1.07,0.95 -2.12,2.47 -3.15,4.56 -1.03,2.1 -1.54,4.19 -1.54,6.3 0,1.27 0.23,2.32 0.7,3.15 0.46,0.83 1.08,1.24 1.85,1.24 1.91,0 3.89,-1.12 5.95,-3.38 2.05,-2.26 3.08,-4.8 3.08,-7.61 0,-1.58 -0.33,-2.88 -1,-3.91 -0.66,-1.02 -1.6,-1.53 -2.8,-1.53 -1.14,0 -2.16,0.39 -3.06,1.18l-0.03 0zm36.16 15.6c-0.74,-1.39 -1.27,-3.97 -1.61,-7.74 -0.34,-3.93 -1.1,-5.9 -2.26,-5.9 -1.11,0 -3.02,2.04 -5.74,6.14 -2.71,4.09 -4.39,7.11 -5.02,9.06 -0.14,0.59 -0.4,1.07 -0.78,1.46 -0.37,0.38 -0.75,0.57 -1.11,0.57 -2.33,0 -3.5,-1.06 -3.5,-3.2 0,-0.72 0.22,-2.37 0.69,-4.93 0.6,-3.32 0.89,-7.37 0.89,-12.17 0,-0.72 0.32,-1.49 0.95,-2.31 0.63,-0.83 1.3,-1.24 2,-1.24 0.9,0 1.58,0.22 2.06,0.67 0.48,0.45 0.71,1.63 0.71,3.55 0,1.46 -0.44,4.29 -1.31,8.48 3.33,-7.8 7.05,-11.7 11.15,-11.7 3.56,0 5.66,2.8 6.27,8.4 0.61,5.72 1.32,8.58 2.12,8.58 0.35,0 0.76,-0.08 1.22,-0.23 0.55,-0.19 0.99,-0.28 1.32,-0.28 0.73,0 1.1,0.43 1.1,1.29 0,0.78 -0.51,1.62 -1.52,2.5 -1.01,0.89 -2.29,1.33 -3.83,1.33 -1.78,0 -3.05,-0.77 -3.82,-2.33l0.02 0z"/>
  <path fill="#15AE55" fill-rule="nonzero" d="M183.62 94.57c-0.13,0.12 -0.24,0.43 -0.33,0.93 -0.1,0.51 -0.38,2.88 -0.84,7.11 -0.46,4.22 -0.69,7.6 -0.69,10.13 0,1.05 0.13,2.22 0.37,3.51 0.07,0.19 0.1,0.41 0.1,0.66 0,0.75 -0.21,1.41 -0.65,2 -0.43,0.59 -0.98,0.89 -1.66,0.89 -0.45,0 -1.03,-0.22 -1.72,-0.67 -0.7,-0.45 -1.11,-1.21 -1.25,-2.28 -0.14,-1.07 -0.21,-2.47 -0.21,-4.19 0,-2.35 0.28,-5.85 0.83,-10.5 0.55,-4.66 0.88,-7.03 0.99,-7.13 -0.39,0 -1.93,0.1 -4.62,0.31 -2.71,0.21 -4.29,0.31 -4.73,0.31 -1.42,0 -2.4,-0.18 -2.95,-0.55 -0.55,-0.36 -0.83,-0.93 -0.83,-1.72 0,-0.7 0.29,-1.24 0.88,-1.61 0.58,-0.37 2.07,-0.56 4.45,-0.56 3.96,0 7.85,-0.26 11.66,-0.79 4.29,-0.65 7.55,-0.98 9.76,-0.98 2.48,0 3.99,0.29 4.52,0.87 0.54,0.59 0.81,1.17 0.81,1.75 0,1.33 -0.6,2 -1.78,2 -0.38,0 -1,-0.04 -1.85,-0.12 -0.87,-0.07 -1.88,-0.11 -3.04,-0.11 -3.48,0 -5.89,0.25 -7.22,0.74zm16.8 14.25l0.35 -0.66c1.67,-3.35 3.46,-6.06 5.37,-8.15 1.93,-2.08 3.8,-3.12 5.63,-3.12 1.41,0 2.55,0.38 3.44,1.16 0.89,0.77 1.33,1.68 1.33,2.74 0,0.66 -0.15,1.23 -0.45,1.7 -0.31,0.48 -0.72,0.72 -1.26,0.72 -0.86,0 -1.63,-0.36 -2.34,-1.05 -0.49,-0.46 -0.88,-0.69 -1.17,-0.69 -1.03,0 -2.76,1.6 -5.18,4.81 -2.43,3.21 -3.88,6.81 -4.38,10.82 -0.15,1.16 -0.48,1.96 -1.01,2.42 -0.52,0.46 -1.23,0.69 -2.12,0.69 -0.95,0 -1.63,-0.54 -2.03,-1.62 -0.4,-1.07 -0.59,-2.84 -0.59,-5.29 0,-1.01 0.02,-2.36 0.07,-4.07 0.06,-1.61 0.22,-3.57 0.48,-5.9 0.07,-0.6 0.12,-1.08 0.14,-1.43 0.13,-1.34 0.27,-2.27 0.43,-2.77 0.16,-0.5 0.52,-0.98 1.1,-1.41 0.58,-0.45 1.22,-0.67 1.92,-0.67 0.75,0 1.31,0.22 1.7,0.65 0.38,0.42 0.57,0.89 0.57,1.4 0,0.65 -0.31,1.98 -0.93,4.02 -0.21,0.71 -0.4,1.54 -0.55,2.52l-0.52 3.18zm30.43 3.33c-3.62,4.77 -7.12,7.15 -10.49,7.15 -1.24,0 -2.31,-0.48 -3.2,-1.46 -0.89,-0.98 -1.34,-2.22 -1.34,-3.73 0,-3.65 1.63,-7.54 4.87,-11.66 3.25,-4.12 6.52,-6.18 9.83,-6.18 1.67,0 2.78,0.85 3.3,2.54 1.58,0 2.37,0.6 2.37,1.82 0,0.57 -0.15,1.62 -0.45,3.13 -0.55,2.83 -0.83,5.1 -0.83,6.79 0,1.77 0.12,3.01 0.36,3.72 0.25,0.72 0.42,1.18 0.53,1.41 0.11,0.21 0.44,0.45 0.99,0.69 0.55,0.26 0.83,0.63 0.83,1.1 0,0.7 -0.35,1.29 -1.07,1.75 -0.71,0.47 -1.45,0.7 -2.22,0.7 -2.58,0 -3.74,-2.59 -3.48,-7.77zm-1.24 -11.46c-1.39,0 -3.2,1.54 -5.42,4.61 -2.22,3.08 -3.33,5.68 -3.33,7.83 0,1.13 0.23,1.69 0.7,1.69 1.62,0 3.62,-1.43 6,-4.32 2.37,-2.88 3.55,-5.4 3.55,-7.56 0,-0.69 -0.15,-1.24 -0.46,-1.64 -0.31,-0.41 -0.66,-0.61 -1.04,-0.61zm17.91 19.5c-2.26,0 -3.99,-0.62 -5.17,-1.86 -1.19,-1.23 -1.78,-2.95 -1.78,-5.15 0,-3.47 1.41,-7.22 4.23,-11.26 2.82,-4.03 5.59,-6.04 8.3,-6.04 1.31,0 2.42,0.65 3.34,1.95 0.93,1.3 1.39,2.65 1.39,4.05 0,1.33 -0.24,2.21 -0.74,2.68 -0.48,0.46 -0.96,0.69 -1.41,0.69 -1.34,0 -2.11,-0.92 -2.33,-2.77 -0.17,-1.35 -0.51,-2.02 -1.01,-2.02 -1.07,0 -2.5,1.53 -4.26,4.58 -1.76,3.06 -2.64,5.73 -2.64,8.03 0,1.86 1.01,2.79 3.01,2.79 2.22,0 4.46,-0.78 6.71,-2.35 1.07,-0.76 1.9,-1.14 2.52,-1.14 0.76,0 1.14,0.38 1.14,1.14 0,1.05 -1.21,2.43 -3.64,4.13 -2.43,1.71 -4.99,2.55 -7.66,2.55zm34.42 -18.37l0.02 0c0,0 -0.02,0.02 -0.04,0.05 -0.8,0.43 -1.45,0.82 -1.94,1.15 -0.93,0.62 -1.86,1.28 -2.79,2 -1.07,0.83 -1.88,1.52 -2.42,2.09 -0.45,0.46 -0.68,0.81 -0.68,1.03 0,0.24 0.81,1.22 2.41,2.9 1.62,1.68 2.89,2.89 3.84,3.62 0.94,0.73 1.87,1.09 2.79,1.09l0.91 -0.02c0.33,0 0.59,0.1 0.79,0.31 0.21,0.19 0.31,0.5 0.31,0.89 0,0.56 -0.36,1.22 -1.05,1.97 -0.71,0.74 -1.91,1.11 -3.62,1.11 -1.01,0 -2.02,-0.37 -3.06,-1.11 -1.03,-0.73 -2.61,-2.39 -4.75,-4.98 -1.7,-2.08 -2.63,-3.12 -2.78,-3.12 -0.1,0 -0.39,0.25 -0.87,0.75 -0.48,0.49 -0.79,0.87 -0.95,1.13l0 0.02c-0.23,1.14 -0.35,2.64 -0.35,4.48 0,0.92 -0.27,1.67 -0.81,2.25 -0.55,0.58 -1.21,0.87 -1.99,0.87 -0.81,0 -1.45,-0.23 -1.91,-0.69 -0.45,-0.47 -0.67,-0.93 -0.67,-1.4 0,-0.49 0.17,-1.58 0.51,-3.26 0.66,-3.26 1.22,-7.59 1.67,-12.98 0.45,-4.31 0.83,-7.67 1.16,-10.09 0.33,-2.41 0.62,-3.99 0.89,-4.75 0.26,-0.74 0.66,-1.34 1.21,-1.79 0.55,-0.45 1.15,-0.67 1.78,-0.67 0.61,0 1.09,0.25 1.46,0.75 0.36,0.5 0.54,1.11 0.54,1.83 0,0.89 -0.58,4.39 -1.73,10.49l-0.5 2.7 0.03 0c-0.61,3.98 -0.92,6.27 -0.93,6.89l6.33 -5.74c3.23,-3.12 5.61,-4.68 7.12,-4.68 1.46,0 2.19,0.58 2.19,1.75 0,1.46 -0.71,2.52 -2.12,3.16zm24.23 10.14c0,1.43 -1.21,3.14 -3.62,5.13 -2.4,1.98 -5.12,2.98 -8.15,2.98 -2.32,0 -4.16,-0.73 -5.49,-2.2 -1.34,-1.46 -2,-3.5 -2,-6.12 0,-3.85 1.36,-7.47 4.09,-10.83 2.72,-3.38 5.63,-5.06 8.73,-5.06 1.54,0 2.78,0.48 3.71,1.46 0.94,0.98 1.41,2.14 1.41,3.49 0,2.4 -1.15,4.68 -3.45,6.84 -2.3,2.17 -5.25,3.66 -8.84,4.5 -0.41,0.09 -0.61,0.33 -0.61,0.74 0,0.66 0.29,1.29 0.87,1.88 0.59,0.6 1.37,0.91 2.35,0.91 2.76,0 5.51,-1.43 8.23,-4.28 0.53,-0.55 1.03,-0.82 1.53,-0.82 0.83,0 1.24,0.45 1.24,1.38zm-13.86 -3.65c2.18,-0.45 4.1,-1.38 5.75,-2.79 1.67,-1.42 2.49,-2.71 2.49,-3.86 0,-0.46 -0.13,-0.84 -0.38,-1.15 -0.25,-0.31 -0.58,-0.46 -0.98,-0.46 -1.2,0 -2.52,0.88 -3.99,2.64 -1.45,1.76 -2.41,3.63 -2.89,5.62zm22.45 0.51l0.34 -0.66c1.67,-3.35 3.46,-6.06 5.38,-8.15 1.92,-2.08 3.79,-3.12 5.63,-3.12 1.4,0 2.55,0.38 3.43,1.16 0.89,0.77 1.34,1.68 1.34,2.74 0,0.66 -0.16,1.23 -0.46,1.7 -0.3,0.48 -0.72,0.72 -1.26,0.72 -0.86,0 -1.63,-0.36 -2.33,-1.05 -0.5,-0.46 -0.89,-0.69 -1.18,-0.69 -1.03,0 -2.76,1.6 -5.18,4.81 -2.42,3.21 -3.88,6.81 -4.38,10.82 -0.15,1.16 -0.48,1.96 -1.01,2.42 -0.52,0.46 -1.23,0.69 -2.12,0.69 -0.95,0 -1.63,-0.54 -2.03,-1.62 -0.39,-1.07 -0.59,-2.84 -0.59,-5.29 0,-1.01 0.02,-2.36 0.08,-4.07 0.05,-1.61 0.21,-3.57 0.47,-5.9 0.07,-0.6 0.12,-1.08 0.15,-1.43 0.12,-1.34 0.26,-2.27 0.42,-2.77 0.16,-0.5 0.53,-0.98 1.1,-1.41 0.58,-0.45 1.22,-0.67 1.92,-0.67 0.75,0 1.31,0.22 1.7,0.65 0.38,0.42 0.58,0.89 0.58,1.4 0,0.65 -0.31,1.98 -0.93,4.02 -0.22,0.71 -0.41,1.54 -0.56,2.52l-0.51 3.18z"/>
 </g>
</svg>
