<?xml version="1.0" encoding="UTF-8"?>
<!DOCTYPE svg PUBLIC "-//W3C//DTD SVG 1.0//EN" "http://www.w3.org/TR/2001/REC-SVG-20010904/DTD/svg10.dtd">
<svg xmlns="http://www.w3.org/2000/svg" xml:space="preserve" width="464px" height="480px" version="1.0" style="shape-rendering:geometricPrecision; text-rendering:geometricPrecision; image-rendering:optimizeQuality; fill-rule:evenodd; clip-rule:evenodd"
viewBox="0 0 71.56 74.08"
 xmlns:xlink="http://www.w3.org/1999/xlink">
 <g id="carbon-tracker-logo-pure">
   <path fill="#2B2A29" d="M32.5 11.31c-4.28,0.2 -8.34,1.8 -11.5,4.42 -0.27,0.22 -0.37,0.26 -0.61,0.53 -0.23,0.25 -0.33,0.37 -0.57,0.58 -0.56,0.5 -1.5,1.75 -1.95,2.53 -0.59,1.04 -1.03,1.99 -1.41,3.19 -1.36,4.33 -1.11,11.36 -1.78,16.46 -0.34,2.61 -1.16,5.5 -0.95,8.18 0.38,4.9 4.98,8.94 10.38,6.79 1.95,-0.78 3.69,-2.57 4.29,-4.8 1.34,-5.1 -4.05,-13.69 6.56,-19.71 2,-1.14 4.23,-2.19 5.43,-3.64 1.38,-1.65 2.54,-3.7 2.36,-6.7 -0.16,-2.78 -1.73,-4.75 -3.2,-5.88 -1.77,-1.37 -4.19,-2.08 -7.05,-1.95z"/>
   <path fill="#15AE55" d="M16.52 64.95c5.08,1.2 8.31,1.75 13.84,1 4.4,-0.6 8.3,-1.8 11.96,-3.46 4.09,-1.87 6.14,-3.43 9.33,-6 4.39,-3.55 2.77,-6.75 -0.05,-5.17 -0.85,0.48 -1.58,1.04 -2.34,1.53 -7.08,4.54 -13.12,7.71 -22.1,8.66 -10.13,1.07 -18.32,-2.08 -21.58,-8.85 -4.76,-9.9 -3.85,-21.06 1.98,-30.46 0.33,-0.53 1.42,-1.84 1.4,-2.5 -0.04,-0.97 -1.31,-2.1 -2.17,-1.18 -1.95,2.1 -4.26,7.25 -5.21,10.21 -3.19,9.99 -1.51,22.12 4.77,30.46 1.65,2.19 1.91,2.37 3.56,4.16 2.28,2.46 5.37,4.66 8.89,6.54 12.14,6.49 27.51,5.38 38.72,-2.95 0.39,-0.29 0.66,-0.47 1.06,-0.81l2.06 -1.79c0.23,-0.2 0.24,-0.25 0.46,-0.49 0.18,-0.19 0.35,-0.3 0.55,-0.49l2.66 -3.08c1.86,-2.43 3.86,-5.67 4.89,-8.56 1.5,-4.19 2.42,-8.09 2.35,-13.04 -0.08,-6.13 -2.07,-12.98 -5.31,-17.8 -0.56,-0.83 -1,-1.47 -1.58,-2.27l-2.6 -3.14c-0.77,-0.72 -1.35,-1.61 -2.27,-1.31 -0.4,0.13 -0.92,0.59 -1.08,0.92 -0.41,0.85 0.54,2.01 0.91,2.62 2.35,3.85 4.47,9.18 5.36,13.93 1.31,6.98 0.29,12.92 -3.17,18.86 -6.46,11.07 -20.43,20.8 -34.52,19.12 -2.28,-0.28 -4.14,-0.84 -6.06,-1.64 -1.44,-0.59 -3.99,-2.13 -4.71,-3.02z"/>
   <path fill="#00A0E3" d="M53.21 13.18c-1.57,0.57 -0.67,2.02 -0.2,3.21 1.59,4.07 2.42,7.62 1.63,12.23 -0.46,2.67 -1.38,4.99 -2.47,7.12 -2.28,4.48 -5.91,8.65 -9.78,11.8 -0.43,0.35 -0.91,0.69 -1.36,1.04 -0.93,0.71 -1.82,1.35 -2.8,1.99 -1.95,1.28 -3.87,2.32 -6.11,3.49 -0.81,0.42 -2.93,1.1 -2.32,2.21 0.5,0.89 2.92,-0.05 3.79,-0.32 6.24,-1.91 13.56,-6.5 17.91,-10.87 1.85,-1.85 2.96,-2.9 4.55,-5.04 5.41,-7.29 5.53,-13.02 1.44,-21.67 -0.5,-1.06 -1.12,-2.16 -1.72,-3.07 -0.33,-0.51 -0.63,-1 -0.95,-1.45 -0.3,-0.41 -0.78,-0.97 -1.61,-0.67z"/>
   <path fill="#B3794A" d="M61.88 38.73c-0.57,0.16 -0.8,0.67 -1.05,1.19 -0.59,1.25 -1.87,3.07 -2.62,4.16 -0.61,0.89 -1.36,1.71 -1.84,2.64 -0.61,1.21 -0.27,2.55 1.05,2.8 2.17,0.4 3.76,-2.87 4.46,-4.49 0.49,-1.13 1.5,-4.08 1.26,-5.4 -0.11,-0.58 -0.56,-1.09 -1.26,-0.9z"/>
   <path fill="#00A0E3" d="M24.44 57.29c-1.52,0.23 -2.78,0.36 -4.36,0.38 -0.56,0.01 -1.79,-0.17 -1.85,0.52 -0.11,1.37 5.37,0.78 6.09,0.68 0.67,-0.09 1.45,-0.21 1.56,-0.83 0.17,-0.87 -0.81,-0.84 -1.44,-0.75z"/>
   <path fill="#F6A7C9" d="M46.11 14.3c0.09,-0.62 -0.15,-1.17 0.36,-2.38 0.68,-1.64 1.56,-2.11 2.87,-2.9 1.19,-0.71 1.13,-1.13 1.47,-1.36 0.2,0.06 0.12,0.03 0.27,0.16 0,1 -1.74,2.14 -2.41,2.68 -0.76,0.61 -1.88,2.35 -1.54,3.61 0.29,-0.03 2.31,-0.7 2.57,-0.83 1.85,-0.93 2.77,-2.72 3.08,-4.86 0.09,-0.65 0.2,-2.53 0.02,-2.99l-1.79 0.51c-1.72,0.52 -3.65,0.82 -5.01,1.95 -0.98,0.82 -1.75,2.04 -1.95,3.73 -0.14,1.11 0.35,3.03 1.04,3.48 0.19,-0.4 0.67,-0.73 1.02,-0.8z"/>
   <path fill="#EE1C25" d="M40.51 10.04c-0.04,-0.53 -0.33,-0.94 -0.14,-2.04 0.27,-1.5 0.91,-2.05 1.86,-2.95 0.86,-0.81 0.74,-1.15 0.98,-1.4 0.17,0.01 0.1,0 0.26,0.08 0.18,0.84 -1.07,2.1 -1.52,2.67 -0.53,0.66 -1.14,2.31 -0.62,3.3 0.23,-0.09 1.8,-1.01 1.98,-1.16 1.38,-1.12 1.82,-2.79 1.68,-4.63 -0.04,-0.55 -0.29,-2.14 -0.53,-2.49l-1.4 0.75c-1.33,0.75 -2.89,1.36 -3.82,2.55 -0.67,0.87 -1.08,2.02 -0.94,3.46 0.09,0.96 0.85,2.47 1.51,2.72 0.08,-0.37 0.42,-0.74 0.7,-0.86z"/>
   <path fill="#F7941D" d="M34.84 8.03c-0.14,-0.44 -0.48,-0.72 -0.54,-1.68 -0.08,-1.31 0.35,-1.9 0.96,-2.85 0.55,-0.86 0.38,-1.12 0.53,-1.38 0.15,-0.02 0.09,-0.02 0.23,0.02 0.32,0.66 -0.46,1.98 -0.73,2.55 -0.3,0.65 -0.48,2.16 0.16,2.89 0.18,-0.12 1.3,-1.22 1.43,-1.38 0.92,-1.22 0.95,-2.71 0.46,-4.22 -0.15,-0.46 -0.69,-1.74 -0.96,-1.98l-1.02 0.91c-0.96,0.91 -2.15,1.73 -2.67,2.92 -0.39,0.87 -0.5,1.92 -0.09,3.1 0.28,0.78 1.22,1.89 1.82,1.97 0,-0.33 0.21,-0.71 0.42,-0.87z"/>
   <path fill="#FFDD16" d="M28.77 8.56c-0.21,-0.4 -0.59,-0.61 -0.83,-1.53 -0.32,-1.25 -0.02,-1.9 0.4,-2.92 0.38,-0.94 0.16,-1.15 0.26,-1.44 0.14,-0.04 0.08,-0.03 0.22,-0.02 0.44,0.58 -0.08,1.99 -0.23,2.6 -0.17,0.69 -0.06,2.17 0.69,2.75 0.15,-0.14 1.03,-1.41 1.12,-1.59 0.67,-1.35 0.42,-2.79 -0.34,-4.16 -0.22,-0.41 -0.98,-1.55 -1.29,-1.73l-0.81 1.07c-0.76,1.05 -1.75,2.07 -2.04,3.31 -0.21,0.91 -0.12,1.95 0.49,3.01 0.41,0.7 1.53,1.6 2.12,1.56 -0.06,-0.32 0.07,-0.72 0.24,-0.91z"/>
   <path fill="#B3794A" d="M23.3 10.23c-0.31,-0.32 -0.73,-0.43 -1.21,-1.25 -0.64,-1.11 -0.53,-1.82 -0.4,-2.92 0.11,-1 -0.16,-1.15 -0.14,-1.45 0.13,-0.08 0.07,-0.05 0.22,-0.08 0.57,0.44 0.45,1.94 0.47,2.56 0.02,0.71 0.52,2.11 1.4,2.47 0.11,-0.18 0.62,-1.63 0.65,-1.84 0.28,-1.47 -0.34,-2.79 -1.44,-3.91 -0.33,-0.34 -1.36,-1.23 -1.7,-1.32l-0.5 1.25c-0.46,1.21 -1.13,2.46 -1.08,3.74 0.04,0.93 0.41,1.9 1.28,2.76 0.58,0.56 1.9,1.13 2.46,0.94 -0.14,-0.29 -0.13,-0.71 -0.01,-0.95z"/>
   <path fill="#15AE55" d="M18.06 13.52c-0.37,-0.26 -0.8,-0.28 -1.43,-0.99 -0.85,-0.98 -0.87,-1.69 -0.96,-2.8 -0.08,-1 -0.37,-1.09 -0.41,-1.39 0.1,-0.11 0.06,-0.07 0.19,-0.12 0.65,0.32 0.82,1.81 0.96,2.42 0.16,0.69 0.92,1.97 1.85,2.15 0.08,-0.2 0.29,-1.72 0.29,-1.93 -0.01,-1.5 -0.88,-2.67 -2.17,-3.56 -0.39,-0.26 -1.58,-0.94 -1.93,-0.96l-0.25 1.32c-0.21,1.28 -0.63,2.63 -0.33,3.88 0.22,0.9 0.76,1.78 1.79,2.46 0.68,0.44 2.08,0.74 2.6,0.44 -0.21,-0.26 -0.27,-0.67 -0.2,-0.92z"/>
   <path fill="#00A0E3" d="M14.02 17.87c-0.43,-0.17 -0.85,-0.09 -1.62,-0.63 -1.06,-0.75 -1.24,-1.44 -1.59,-2.49 -0.31,-0.96 -0.61,-0.98 -0.72,-1.26 0.08,-0.13 0.04,-0.08 0.16,-0.17 0.7,0.17 1.22,1.58 1.49,2.13 0.32,0.64 1.36,1.71 2.3,1.67 0.03,-0.21 -0.12,-1.74 -0.17,-1.94 -0.36,-1.46 -1.47,-2.4 -2.93,-2.96 -0.44,-0.17 -1.75,-0.55 -2.1,-0.49l0.07 1.34c0.09,1.3 -0.01,2.71 0.57,3.85 0.42,0.82 1.16,1.55 2.31,1.97 0.76,0.27 2.19,0.24 2.63,-0.17 -0.26,-0.2 -0.42,-0.59 -0.4,-0.85z"/>
 </g>
</svg>
